<svg xmlns="http://www.w3.org/2000/svg" viewBox="0 0 64 64">
  <defs>
    <radialGradient id="space" cx="62%" cy="20%" r="95%">
      <stop offset="0%" stop-color="#0b2240" />
      <stop offset="100%" stop-color="#060b14" />
    </radialGradient>
    <filter id="glow" x="-50%" y="-50%" width="200%" height="200%">
      <feGaussianBlur stdDeviation="1.8" />
    </filter>
    <linearGradient id="trailOrange" x1="24" y1="30" x2="44.5" y2="15.5" gradientUnits="userSpaceOnUse">
      <stop offset="0%" stop-color="#f7b731" stop-opacity="0.78" />
      <stop offset="100%" stop-color="#f7b731" stop-opacity="0" />
    </linearGradient>
    <linearGradient id="trailBlue" x1="40" y1="28" x2="17" y2="29" gradientUnits="userSpaceOnUse">
      <stop offset="0%" stop-color="#60a5fa" stop-opacity="0.78" />
      <stop offset="100%" stop-color="#60a5fa" stop-opacity="0" />
    </linearGradient>
    <linearGradient id="trailGreen" x1="32" y1="39" x2="52.5" y2="41" gradientUnits="userSpaceOnUse">
      <stop offset="0%" stop-color="#8bd450" stop-opacity="0.78" />
      <stop offset="100%" stop-color="#8bd450" stop-opacity="0" />
    </linearGradient>
  </defs>
  <rect width="64" height="64" rx="10" fill="url(#space)" />
  <g transform="translate(32 32) scale(3.8) translate(-32 -32)">
  <g transform="translate(32 32) scale(0.6) translate(-32 -32)">

  <path d="M23.7 30.1C19.8 19.2 29.1 13.7 44.4 15.6L44.6 15.4C30.3 12.3 21 18.1 24.3 29.9Z" fill="url(#trailOrange)" />
  <path d="M40.3 27.6C32.8 19.7 23.7 18.7 17.05 28.9L16.95 29.1C23.3 19.3 32.2 20.3 39.7 28.4Z" fill="url(#trailBlue)" />
  <path d="M32.4 38.7C38 45.7 46.8 46.7 52.55 40.95L52.45 41.05C46.2 47.3 37 46.3 31.6 39.3Z" fill="url(#trailGreen)" />

  <circle cx="24" cy="30" r="4.125" fill="#f7b731" filter="url(#glow)" opacity="0.85" />
  <circle cx="40" cy="28" r="4.125" fill="#60a5fa" filter="url(#glow)" opacity="0.85" />
  <circle cx="32" cy="39" r="4.125" fill="#8bd450" filter="url(#glow)" opacity="0.85" />

  <circle cx="24" cy="30" r="3.15" fill="#f7b731" />
  <circle cx="40" cy="28" r="3.15" fill="#60a5fa" />
  <circle cx="32" cy="39" r="3.15" fill="#8bd450" />
  </g>
  </g>
</svg>
