<svg xmlns="http://www.w3.org/2000/svg" viewBox="0 0 64 64">
  <defs>
    <radialGradient id="space" cx="62%" cy="20%" r="95%">
      <stop offset="0%" stop-color="#0b2240" />
      <stop offset="100%" stop-color="#060b14" />
    </radialGradient>
    <filter id="glow" x="-50%" y="-50%" width="200%" height="200%">
      <feGaussianBlur stdDeviation="1.8" />
    </filter>
    <linearGradient id="trailOrange" x1="13.5" y1="24.5" x2="34" y2="10" gradientUnits="userSpaceOnUse">
      <stop offset="0%" stop-color="#f7b731" stop-opacity="0.78" />
      <stop offset="100%" stop-color="#f7b731" stop-opacity="0" />
    </linearGradient>
    <linearGradient id="trailBlue" x1="54.5" y1="33" x2="31.5" y2="34" gradientUnits="userSpaceOnUse">
      <stop offset="0%" stop-color="#60a5fa" stop-opacity="0.78" />
      <stop offset="100%" stop-color="#60a5fa" stop-opacity="0" />
    </linearGradient>
    <linearGradient id="trailGreen" x1="34.5" y1="39" x2="55" y2="41" gradientUnits="userSpaceOnUse">
      <stop offset="0%" stop-color="#8bd450" stop-opacity="0.78" />
      <stop offset="100%" stop-color="#8bd450" stop-opacity="0" />
    </linearGradient>
  </defs>
  <rect width="64" height="64" rx="10" fill="url(#space)" />
  <g transform="translate(-4.16 -4.16) scale(1.13)">

  <path d="M13.2 24.6C9.3 13.7 18.6 8.2 33.9 10.1L34.1 9.9C19.8 6.8 10.5 12.6 13.8 24.4Z" fill="url(#trailOrange)" />
  <path d="M54.8 32.6C47.3 24.7 38.2 23.7 31.55 33.9L31.45 34.1C37.8 24.3 46.7 25.3 54.2 33.4Z" fill="url(#trailBlue)" />
  <path d="M34.9 38.7C40.5 45.7 49.3 46.7 55.05 40.95L54.95 41.05C48.7 47.3 39.5 46.3 34.1 39.3Z" fill="url(#trailGreen)" />

  <circle cx="13.5" cy="24.5" r="4.8" fill="#f7b731" filter="url(#glow)" opacity="0.85" />
  <circle cx="54.5" cy="33" r="4.8" fill="#60a5fa" filter="url(#glow)" opacity="0.85" />
  <circle cx="34.5" cy="39" r="4.8" fill="#8bd450" filter="url(#glow)" opacity="0.85" />

  <circle cx="13.5" cy="24.5" r="2.8" fill="#f7b731" />
  <circle cx="54.5" cy="33" r="2.8" fill="#60a5fa" />
  <circle cx="34.5" cy="39" r="2.8" fill="#8bd450" />
  </g>
</svg>
